<svg width="12" height="14" viewBox="0 0 12 14" fill="none" xmlns="http://www.w3.org/2000/svg">
<path d="M1.65415 13.9902H6.75364C9.74874 13.9902 11.6378 12.4151 11.6378 9.99861C11.6378 8.09085 10.2577 6.7114 8.27077 6.60378V6.52551C9.89556 6.30049 11.0016 5.07757 11.0016 3.52201C11.0016 1.34032 9.32786 0 6.61661 0H1.65415C0.60685 0 0 0.616352 0 1.69252V12.3075C0 13.3739 0.60685 13.9902 1.65415 13.9902ZM3.23001 11.7303V7.84627H5.68677C7.39964 7.84627 8.35886 8.51153 8.35886 9.7638C8.35886 11.0454 7.4388 11.7303 5.75528 11.7303H3.23001ZM3.23001 5.81132V2.29909H5.63783C7.00813 2.29909 7.82052 2.92523 7.82052 4.0014C7.82052 5.13627 6.92004 5.81132 5.39313 5.81132H3.23001Z" fill="#5B5B5B"/>
</svg>
