<svg width="20" height="20" viewBox="0 0 20 20" fill="none" xmlns="http://www.w3.org/2000/svg">
<path d="M1 9.49652C1 9.91742 1.23948 10.215 1.7402 10.2948C2.64006 10.4327 2.99565 10.8898 2.99565 12.0582V14.0974C2.99565 16.0712 3.8955 17.0001 5.85486 17.0001C5.97097 17.0001 6.09435 16.9783 6.18143 16.9494C6.40639 16.855 6.52976 16.6736 6.52976 16.4341C6.52976 16.1511 6.40639 16.006 6.1524 15.9407C6.07983 15.9261 6.00726 15.9116 5.92018 15.9043C4.70102 15.8173 4.25835 15.2948 4.25835 13.9523V11.543C4.25835 10.3165 3.61248 9.63437 2.48041 9.52558C2.45864 9.52558 2.45864 9.49652 2.48041 9.49652C3.61248 9.38766 4.25835 8.70551 4.25835 7.4791V5.06254C4.25835 3.71276 4.70102 3.20478 5.92018 3.1177C6.03629 3.11044 6.13788 3.09593 6.21046 3.0669C6.4209 2.99433 6.52976 2.83468 6.52976 2.58069C6.52976 2.3267 6.39913 2.15253 6.1524 2.06545C6.04355 2.02916 5.92744 2.01465 5.7823 2.01465C3.88825 2.01465 2.99565 2.95804 2.99565 4.91741V6.96386C2.99565 8.1177 2.64006 8.58214 1.7402 8.72003C1.23948 8.79985 1 9.08287 1 9.49652ZM19.2366 9.49652C19.2366 9.08287 18.9899 8.79985 18.4892 8.72003C17.5965 8.58214 17.2337 8.1177 17.2337 6.96386V4.91741C17.2337 2.95804 16.3411 2.01465 14.447 2.01465C14.3019 2.01465 14.193 2.02916 14.0842 2.06545C13.8375 2.15253 13.6995 2.3267 13.6995 2.58069C13.6995 2.83468 13.8157 2.99433 14.0261 3.0669C14.0987 3.09593 14.193 3.11044 14.3092 3.1177C15.5283 3.20478 15.9782 3.71276 15.9782 5.06254V7.4791C15.9782 8.70551 16.6168 9.38766 17.749 9.49652C17.7707 9.49652 17.7707 9.52558 17.749 9.52558C16.6168 9.63437 15.9782 10.3165 15.9782 11.543V13.9523C15.9782 15.2948 15.5283 15.8173 14.3092 15.9043C14.2221 15.9116 14.1568 15.9261 14.0842 15.9407C13.8302 16.006 13.6995 16.1511 13.6995 16.4341C13.6995 16.6736 13.8302 16.855 14.0552 16.9494C14.1422 16.9783 14.2584 17.0001 14.3744 17.0001C16.3339 17.0001 17.2337 16.0712 17.2337 14.0974V12.0582C17.2337 10.8898 17.5965 10.4327 18.4892 10.2948C18.9899 10.215 19.2366 9.91742 19.2366 9.49652Z" fill="#B5B5B5"/>
<path d="M13.4964 10.5415C14.077 10.5415 14.5486 10.0699 14.5486 9.49659C14.5486 8.91603 14.077 8.44434 13.4964 8.44434C12.9158 8.44434 12.4441 8.91603 12.4441 9.49659C12.4441 10.0699 12.9158 10.5415 13.4964 10.5415Z" fill="#B5B5B5"/>
<path d="M10.1074 10.5415C10.688 10.5415 11.1597 10.0699 11.1597 9.49659C11.1597 8.91603 10.688 8.44434 10.1074 8.44434C9.53413 8.44434 9.06241 8.91603 9.06241 9.49659C9.06241 10.0699 9.53413 10.5415 10.1074 10.5415Z" fill="#B5B5B5"/>
<path d="M6.72608 10.5415C7.30663 10.5415 7.77833 10.0699 7.77833 9.49659C7.77833 8.91603 7.29937 8.44434 6.72608 8.44434C6.14553 8.44434 5.67383 8.91603 5.67383 9.49659C5.67383 10.0699 6.14553 10.5415 6.72608 10.5415Z" fill="#B5B5B5"/>
</svg>
