<svg width="20" height="20" viewBox="0 0 20 20" fill="none" xmlns="http://www.w3.org/2000/svg">
<path d="M9.90821 3.95131C10.0115 3.95131 10.0672 3.8864 10.0831 3.78904C10.3216 2.47465 10.2977 2.40973 11.6809 2.15822C11.7762 2.13387 11.8399 2.07708 11.8399 1.9716C11.8399 1.87424 11.7762 1.80932 11.6809 1.7931C10.2977 1.54158 10.3216 1.47667 10.0831 0.162271C10.0672 0.0649086 10.0115 0 9.90821 0C9.80487 0 9.74923 0.0649086 9.73332 0.162271C9.49485 1.47667 9.51869 1.54158 8.13554 1.7931C8.03221 1.80932 7.97656 1.87424 7.97656 1.9716C7.97656 2.07708 8.03221 2.13387 8.13554 2.15822C9.51869 2.40973 9.49485 2.47465 9.73332 3.78904C9.74923 3.8864 9.80487 3.95131 9.90821 3.95131Z" fill="#5B5B5B"/>
<path d="M6.06042 9.53426C6.21145 9.53426 6.3148 9.42883 6.33069 9.28277C6.61686 7.11642 6.6884 7.11642 8.88236 6.6864C9.0175 6.66206 9.12084 6.5647 9.12084 6.41054C9.12084 6.26449 9.0175 6.15902 8.88236 6.14279C6.6884 5.82636 6.60891 5.75334 6.33069 3.55456C6.3148 3.4004 6.21145 3.29492 6.06042 3.29492C5.91733 3.29492 5.81399 3.4004 5.79014 3.56267C5.53577 5.729 5.41654 5.72089 3.23847 6.14279C3.10334 6.16714 3 6.26449 3 6.41054C3 6.57281 3.10334 6.66206 3.27027 6.6864C5.43244 7.0434 5.53577 7.10019 5.79014 9.26648C5.81399 9.42883 5.91733 9.53426 6.06042 9.53426Z" fill="#5B5B5B"/>
<path d="M11.4503 18.5068C11.657 18.5068 11.808 18.3526 11.8477 18.1336C12.4122 13.6955 13.0243 13.0139 17.3327 12.5271C17.5553 12.5027 17.7063 12.3405 17.7063 12.1214C17.7063 11.9104 17.5553 11.7482 17.3327 11.7238C13.0243 11.237 12.4122 10.5555 11.8477 6.10926C11.808 5.89018 11.657 5.74414 11.4503 5.74414C11.2437 5.74414 11.0926 5.89018 11.0608 6.10926C10.4964 10.5555 9.87639 11.237 5.57589 11.7238C5.34537 11.7482 5.19434 11.9104 5.19434 12.1214C5.19434 12.3405 5.34537 12.5027 5.57589 12.5271C9.86843 13.1032 10.4646 13.6955 11.0608 18.1336C11.0926 18.3526 11.2437 18.5068 11.4503 18.5068Z" fill="#5B5B5B"/>
</svg>
