<svg width="20" height="20" viewBox="0 0 20 20" fill="none" xmlns="http://www.w3.org/2000/svg">
<path d="M6.40778 18C8.75356 18 10.3036 16.718 10.6756 14.1444L11.9777 5.14152C12.2361 3.32714 13.0421 2.56787 14.4578 2.56787C15.5015 2.56787 15.8219 2.69605 16.2456 2.69605C16.69 2.69605 17 2.42981 17 1.96635C17 1.20708 15.7909 1 14.5922 1C12.2464 1 10.6963 2.2819 10.3243 4.85556L9.03257 13.8683C8.77423 15.6826 7.95785 16.4321 6.54212 16.4321C5.50874 16.4321 5.19872 16.3039 4.7647 16.3039C4.31002 16.3039 4 16.5701 4 17.0336C4 17.8027 5.20906 18 6.40778 18ZM5.88075 9.60845H15.9459C16.4419 9.60845 16.7932 9.28305 16.7932 8.82945C16.7932 8.37585 16.4315 8.04059 15.9356 8.04059H5.87042C5.3744 8.04059 5.02305 8.36599 5.02305 8.82945C5.02305 9.28305 5.38473 9.60845 5.88075 9.60845Z" fill="#B5B5B5"/>
</svg>
