<svg width="20" height="20" viewBox="0 0 20 20" fill="none" xmlns="http://www.w3.org/2000/svg">
<path d="M5.49085 19.0001H14.193C14.4676 19.0001 14.6922 18.7733 14.6922 18.465C14.6922 18.1567 14.4676 17.9209 14.193 17.9209H5.49085C5.22463 17.9209 5 18.1567 5 18.465C5 18.7733 5.22463 19.0001 5.49085 19.0001Z" fill="#5B5B5B"/>
<path d="M9.84192 16.2159C12.8369 16.2159 14.6922 14.257 14.6922 11.4093V3.61882C14.6922 3.11095 14.3843 2.77539 13.9101 2.77539C13.4442 2.77539 13.1531 3.11095 13.1531 3.61882V11.2733C13.1531 13.2957 11.9301 14.6742 9.84192 14.6742C7.76206 14.6742 6.5391 13.2957 6.5391 11.2733V3.61882C6.5391 3.11095 6.23128 2.77539 5.75707 2.77539C5.29118 2.77539 5 3.11095 5 3.61882V11.4093C5 14.257 6.84692 16.2159 9.84192 16.2159Z" fill="#5B5B5B"/>
</svg>
